<svg width="20" height="21" viewBox="0 0 20 21" fill="none" xmlns="http://www.w3.org/2000/svg">
<path d="M18.5507 5.83852H14.9855C15.314 5.32742 15.5072 4.72078 15.5072 4.07116C15.5072 2.25365 14.0121 0.775282 12.1739 0.775282C11.1739 0.775282 10.2729 1.21473 9.66183 1.90734C9.05072 1.21473 8.14976 0.775282 7.14976 0.775282C5.31159 0.775282 3.81642 2.25365 3.81642 4.07116C3.81642 4.72078 4.00725 5.32742 4.33816 5.83852H0.772947C0.345411 5.83852 0 6.18005 0 6.60278V11.3794C0 11.4845 0.0869565 11.5705 0.193237 11.5705H1.15942V19.7863C1.15942 20.209 1.50483 20.5506 1.93237 20.5506H17.3913C17.8188 20.5506 18.1642 20.209 18.1642 19.7863V11.5705H19.1304C19.2367 11.5705 19.3237 11.4845 19.3237 11.3794V6.60278C19.3237 6.18005 18.9783 5.83852 18.5507 5.83852ZM10.4831 4.07116C10.4831 3.14927 11.2415 2.39934 12.1739 2.39934C13.1063 2.39934 13.8647 3.14927 13.8647 4.07116C13.8647 4.99305 13.1063 5.74299 12.1739 5.74299H10.4831V4.07116ZM7.14976 2.39934C8.08212 2.39934 8.84058 3.14927 8.84058 4.07116V5.74299H7.14976C6.21739 5.74299 5.45894 4.99305 5.45894 4.07116C5.45894 3.14927 6.21739 2.39934 7.14976 2.39934ZM1.64251 9.94643V7.46257H8.84058V9.94643H1.64251ZM2.80193 11.5705H8.84058V18.9265H2.80193V11.5705ZM16.5217 18.9265H10.4831V11.5705H16.5217V18.9265ZM17.6812 9.94643H10.4831V7.46257H17.6812V9.94643Z" fill="#6C757D"/>
</svg>
