<svg width="19" height="21" viewBox="0 0 19 21" fill="none" xmlns="http://www.w3.org/2000/svg">
<path d="M18.1533 16.9136C17.6794 15.8035 16.9915 14.7952 16.1282 13.9448C15.2675 13.092 14.2479 12.412 13.1257 11.9425C13.1156 11.9375 13.1056 11.935 13.0955 11.93C14.6609 10.8121 15.6785 8.99108 15.6785 6.93653C15.6785 3.533 12.8895 0.775391 9.4473 0.775391C6.00509 0.775391 3.21614 3.533 3.21614 6.93653C3.21614 8.99108 4.23373 10.8121 5.79906 11.9325C5.78901 11.9375 5.77896 11.94 5.76891 11.9449C4.64328 12.4145 3.63323 13.0877 2.76639 13.9473C1.90385 14.7984 1.21615 15.8065 0.741269 16.9161C0.274742 18.0024 0.023133 19.167 6.28291e-05 20.347C-0.000607786 20.3735 0.0040958 20.3999 0.0138966 20.4245C0.0236973 20.4492 0.0383969 20.4717 0.0571291 20.4907C0.0758614 20.5097 0.0982473 20.5248 0.122968 20.5351C0.147688 20.5454 0.174243 20.5507 0.201068 20.5507H1.70861C1.81916 20.5507 1.9071 20.4637 1.90961 20.3569C1.95986 18.439 2.73876 16.6428 4.11564 15.2814C5.54026 13.8728 7.43222 13.0977 9.4473 13.0977C11.4624 13.0977 13.3543 13.8728 14.779 15.2814C16.1558 16.6428 16.9347 18.439 16.985 20.3569C16.9875 20.4662 17.0754 20.5507 17.186 20.5507H18.6935C18.7203 20.5507 18.7469 20.5454 18.7716 20.5351C18.7963 20.5248 18.8187 20.5097 18.8375 20.4907C18.8562 20.4717 18.8709 20.4492 18.8807 20.4245C18.8905 20.3999 18.8952 20.3735 18.8945 20.347C18.8694 19.1594 18.6207 18.0042 18.1533 16.9136V16.9136ZM9.4473 11.2096C8.29403 11.2096 7.2086 10.7649 6.39202 9.95748C5.57544 9.15007 5.12569 8.07684 5.12569 6.93653C5.12569 5.79623 5.57544 4.72299 6.39202 3.91559C7.2086 3.10818 8.29403 2.66348 9.4473 2.66348C10.6006 2.66348 11.686 3.10818 12.5026 3.91559C13.3192 4.72299 13.7689 5.79623 13.7689 6.93653C13.7689 8.07684 13.3192 9.15007 12.5026 9.95748C11.686 10.7649 10.6006 11.2096 9.4473 11.2096Z" fill="#6C757D"/>
</svg>
