<svg width="22" height="21" viewBox="0 0 22 21" fill="none" xmlns="http://www.w3.org/2000/svg">
<path d="M21.7708 18.5281H2.0625V1C2.0625 0.876405 1.95938 0.775282 1.83333 0.775282H0.229167C0.103125 0.775282 0 0.876405 0 1V20.3258C0 20.4494 0.103125 20.5506 0.229167 20.5506H21.7708C21.8969 20.5506 22 20.4494 22 20.3258V18.7528C22 18.6292 21.8969 18.5281 21.7708 18.5281ZM5.09323 14.1938C5.18203 14.2809 5.32526 14.2809 5.41693 14.1938L9.37864 10.3287L13.0339 13.9354C13.1227 14.0225 13.2687 14.0225 13.3576 13.9354L21.2466 6.20225C21.3354 6.11517 21.3354 5.97191 21.2466 5.88483L20.1122 4.77247C20.0692 4.73065 20.011 4.70719 19.9504 4.70719C19.8898 4.70719 19.8316 4.73065 19.7885 4.77247L13.2 11.2303L9.55052 7.62921C9.50745 7.58739 9.44929 7.56393 9.38867 7.56393C9.32806 7.56393 9.26989 7.58739 9.22682 7.62921L3.96172 12.7612C3.91907 12.8035 3.89515 12.8605 3.89515 12.9199C3.89515 12.9794 3.91907 13.0364 3.96172 13.0787L5.09323 14.1938Z" fill="#6C757D"/>
</svg>
