<svg width="20" height="21" viewBox="0 0 20 21" fill="none" xmlns="http://www.w3.org/2000/svg">
<path d="M18.5507 5.83863H14.9855C15.314 5.32753 15.5072 4.72089 15.5072 4.07127C15.5072 2.25376 14.0121 0.775391 12.1739 0.775391C11.1739 0.775391 10.2729 1.21484 9.66183 1.90745C9.05072 1.21484 8.14976 0.775391 7.14976 0.775391C5.31159 0.775391 3.81642 2.25376 3.81642 4.07127C3.81642 4.72089 4.00725 5.32753 4.33816 5.83863H0.772947C0.345411 5.83863 0 6.18016 0 6.60289V11.3795C0 11.4846 0.0869565 11.5706 0.193237 11.5706H1.15942V19.7864C1.15942 20.2091 1.50483 20.5507 1.93237 20.5507H17.3913C17.8188 20.5507 18.1642 20.2091 18.1642 19.7864V11.5706H19.1304C19.2367 11.5706 19.3237 11.4846 19.3237 11.3795V6.60289C19.3237 6.18016 18.9783 5.83863 18.5507 5.83863ZM10.4831 4.07127C10.4831 3.14938 11.2415 2.39945 12.1739 2.39945C13.1063 2.39945 13.8647 3.14938 13.8647 4.07127C13.8647 4.99316 13.1063 5.74309 12.1739 5.74309H10.4831V4.07127ZM7.14976 2.39945C8.08212 2.39945 8.84058 3.14938 8.84058 4.07127V5.74309H7.14976C6.21739 5.74309 5.45894 4.99316 5.45894 4.07127C5.45894 3.14938 6.21739 2.39945 7.14976 2.39945ZM1.64251 9.94654V7.46268H8.84058V9.94654H1.64251ZM2.80193 11.5706H8.84058V18.9266H2.80193V11.5706ZM16.5217 18.9266H10.4831V11.5706H16.5217V18.9266ZM17.6812 9.94654H10.4831V7.46268H17.6812V9.94654Z" fill="#6C757D"/>
</svg>
