<svg width="20" height="21" viewBox="0 0 20 21" fill="none" xmlns="http://www.w3.org/2000/svg">
<path d="M17.9994 10.7981H9.86331V2.75342C9.86331 2.65455 9.7815 2.57365 9.6815 2.57365H9.09061C7.89679 2.57172 6.71436 2.80321 5.61135 3.2548C4.50835 3.7064 3.50654 4.36918 2.66356 5.20502C1.83338 6.02333 1.17191 6.99333 0.715898 8.0611C0.241381 9.16856 -0.00211181 10.3594 1.37976e-05 11.5621C-0.0019411 12.7425 0.232179 13.9117 0.688904 15.0023C1.14563 16.0929 1.81594 17.0834 2.66129 17.9169C3.49535 18.7416 4.46804 19.391 5.54982 19.8427C6.66987 20.3119 7.87419 20.5527 9.09061 20.5505C10.2844 20.5525 11.4669 20.321 12.5699 19.8694C13.6729 19.4178 14.6747 18.755 15.5177 17.9192C16.3517 17.0945 17.0085 16.1327 17.4653 15.0631C17.9398 13.9556 18.1833 12.7648 18.1812 11.5621V10.9779C18.1812 10.879 18.0994 10.7981 17.9994 10.7981ZM14.4018 16.8608C13.6981 17.5512 12.8635 18.0975 11.9458 18.4685C11.0282 18.8394 10.0456 19.0277 9.05425 19.0225C7.05204 19.0135 5.17029 18.2383 3.75443 16.8383C2.32948 15.4294 1.54542 13.5553 1.54542 11.5621C1.54542 9.56891 2.32948 7.69482 3.75443 6.28588C4.9953 5.05896 6.59297 4.31067 8.31791 4.13989V12.3261H16.5972C16.4222 14.0407 15.6586 15.6294 14.4018 16.8608ZM19.9993 9.54869L19.9402 8.915C19.7471 6.84541 18.8175 4.89267 17.3221 3.41857C15.8257 1.94176 13.8548 1.02779 11.7496 0.834389L11.1065 0.775964C10.9996 0.766976 10.9087 0.847872 10.9087 0.953486V9.58464C10.9087 9.68352 10.9905 9.76441 11.0905 9.76441L19.8175 9.74194C19.9243 9.74194 20.0084 9.65206 19.9993 9.54869ZM12.4496 8.24087V2.47478C13.8812 2.77106 15.195 3.47209 16.2313 4.49269C17.2699 5.51737 17.9812 6.8207 18.2767 8.22514L12.4496 8.24087Z" fill="#6C757D"/>
</svg>
