<svg width="19" height="21" viewBox="0 0 19 21" fill="none" xmlns="http://www.w3.org/2000/svg">
<path d="M18.1533 16.9135C17.6794 15.8034 16.9915 14.7951 16.1282 13.9447C15.2675 13.0919 14.2479 12.4119 13.1257 11.9424C13.1156 11.9374 13.1056 11.9349 13.0955 11.9299C14.6609 10.812 15.6785 8.99097 15.6785 6.93642C15.6785 3.53289 12.8895 0.775282 9.4473 0.775282C6.00509 0.775282 3.21614 3.53289 3.21614 6.93642C3.21614 8.99097 4.23373 10.812 5.79906 11.9324C5.78901 11.9374 5.77896 11.9399 5.76891 11.9448C4.64328 12.4144 3.63323 13.0876 2.76639 13.9472C1.90385 14.7983 1.21615 15.8064 0.741269 16.916C0.274742 18.0023 0.023133 19.1669 6.28291e-05 20.3468C-0.000607786 20.3734 0.0040958 20.3997 0.0138966 20.4244C0.0236973 20.4491 0.0383969 20.4716 0.0571291 20.4906C0.0758614 20.5096 0.0982473 20.5247 0.122968 20.535C0.147688 20.5453 0.174243 20.5506 0.201068 20.5506H1.70861C1.81916 20.5506 1.9071 20.4636 1.90961 20.3568C1.95986 18.4389 2.73876 16.6427 4.11564 15.2813C5.54026 13.8727 7.43222 13.0976 9.4473 13.0976C11.4624 13.0976 13.3543 13.8727 14.779 15.2813C16.1558 16.6427 16.9347 18.4389 16.985 20.3568C16.9875 20.4661 17.0754 20.5506 17.186 20.5506H18.6935C18.7204 20.5506 18.7469 20.5453 18.7716 20.535C18.7963 20.5247 18.8187 20.5096 18.8375 20.4906C18.8562 20.4716 18.8709 20.4491 18.8807 20.4244C18.8905 20.3997 18.8952 20.3734 18.8945 20.3468C18.8694 19.1593 18.6207 18.0041 18.1533 16.9135ZM9.4473 11.2095C8.29403 11.2095 7.2086 10.7648 6.39202 9.95737C5.57544 9.14996 5.12569 8.07673 5.12569 6.93642C5.12569 5.79612 5.57544 4.72289 6.39202 3.91548C7.2086 3.10807 8.29403 2.66337 9.4473 2.66337C10.6006 2.66337 11.686 3.10807 12.5026 3.91548C13.3192 4.72289 13.7689 5.79612 13.7689 6.93642C13.7689 8.07673 13.3192 9.14996 12.5026 9.95737C11.686 10.7648 10.6006 11.2095 9.4473 11.2095Z" fill="#6C757D"/>
</svg>
