<svg width="20" height="21" viewBox="0 0 20 21" fill="none" xmlns="http://www.w3.org/2000/svg">
<path id="Vector" d="M17.9994 10.7982H9.86331V2.75353C9.86331 2.65466 9.7815 2.57376 9.6815 2.57376H9.09061C7.89679 2.57183 6.71436 2.80332 5.61135 3.25491C4.50835 3.7065 3.50654 4.36929 2.66356 5.20513C1.83338 6.02344 1.17191 6.99344 0.715898 8.06121C0.241381 9.16867 -0.00211181 10.3595 1.37976e-05 11.5622C-0.0019411 12.7426 0.232179 13.9118 0.688904 15.0024C1.14563 16.093 1.81594 17.0835 2.66129 17.917C3.49535 18.7417 4.46804 19.3911 5.54982 19.8428C6.66987 20.312 7.87419 20.5528 9.09061 20.5507C10.2844 20.5526 11.4669 20.3211 12.5699 19.8695C13.6729 19.4179 14.6747 18.7551 15.5177 17.9193C16.3517 17.0946 17.0085 16.1328 17.4653 15.0632C17.9398 13.9557 18.1833 12.765 18.1812 11.5622V10.978C18.1812 10.8791 18.0994 10.7982 17.9994 10.7982ZM14.4018 16.8609C13.6981 17.5513 12.8635 18.0976 11.9458 18.4686C11.0282 18.8395 10.0456 19.0278 9.05425 19.0226C7.05204 19.0136 5.17029 18.2384 3.75443 16.8384C2.32948 15.4295 1.54542 13.5554 1.54542 11.5622C1.54542 9.56902 2.32948 7.69493 3.75443 6.28599C4.9953 5.05907 6.59297 4.31078 8.31791 4.14V12.3262H16.5972C16.4222 14.0408 15.6586 15.6295 14.4018 16.8609V16.8609ZM19.9993 9.5488L19.9402 8.91511C19.7471 6.84552 18.8175 4.89278 17.3221 3.41868C15.8257 1.94187 13.8548 1.0279 11.7496 0.834498L11.1065 0.776073C10.9996 0.767085 10.9087 0.847981 10.9087 0.953595V9.58475C10.9087 9.68362 10.9905 9.76452 11.0905 9.76452L19.8175 9.74205C19.9243 9.74205 20.0084 9.65216 19.9993 9.5488ZM12.4496 8.24098V2.47489C13.8812 2.77117 15.195 3.4722 16.2313 4.4928C17.2699 5.51748 17.9812 6.8208 18.2767 8.22525L12.4496 8.24098Z" fill="#6C757D"/>
</svg>
